<svg width="14" height="18" viewBox="0 0 14 18" fill="none" xmlns="http://www.w3.org/2000/svg">
<path fill-rule="evenodd" clip-rule="evenodd" d="M4.70829 15.2503C4.70829 15.0846 4.77414 14.9256 4.89135 14.8084C5.00856 14.6912 5.16753 14.6253 5.33329 14.6253H8.66663C8.83239 14.6253 8.99136 14.6912 9.10857 14.8084C9.22578 14.9256 9.29163 15.0846 9.29163 15.2503C9.29163 15.4161 9.22578 15.5751 9.10857 15.6923C8.99136 15.8095 8.83239 15.8753 8.66663 15.8753H5.33329C5.16753 15.8753 5.00856 15.8095 4.89135 15.6923C4.77414 15.5751 4.70829 15.4161 4.70829 15.2503ZM5.26413 17.3337C5.26413 17.1679 5.32997 17.0089 5.44718 16.8917C5.56439 16.7745 5.72337 16.7087 5.88913 16.7087H8.11079C8.27655 16.7087 8.43552 16.7745 8.55273 16.8917C8.66994 17.0089 8.73579 17.1679 8.73579 17.3337C8.73579 17.4994 8.66994 17.6584 8.55273 17.7756C8.43552 17.8928 8.27655 17.9587 8.11079 17.9587H5.88913C5.72337 17.9587 5.56439 17.8928 5.44718 17.7756C5.32997 17.6584 5.26413 17.4994 5.26413 17.3337ZM0.541626 5.84866C0.541626 2.59449 3.50329 0.0419922 6.99996 0.0419922C10.4966 0.0419922 13.4583 2.59449 13.4583 5.84866V5.85116C13.45 7.69033 12.6591 9.52199 11.2541 10.8545L11.2525 10.8562L10.3333 11.722C10.2678 11.7838 10.2156 11.8583 10.1799 11.941C10.1442 12.0237 10.1258 12.1128 10.1258 12.2028C10.1258 12.6243 9.95836 13.0285 9.66034 13.3265C9.36231 13.6246 8.9581 13.792 8.53663 13.792H5.46496C5.04349 13.792 4.63928 13.6246 4.34125 13.3265C4.04322 13.0285 3.87579 12.6243 3.87579 12.2028C3.87569 12.1127 3.85715 12.0236 3.82132 11.9409C3.7855 11.8582 3.73314 11.7837 3.66746 11.722L2.74829 10.8553L2.74579 10.8545C1.34163 9.52116 0.549959 7.69033 0.541626 5.85033V5.84783V5.84866ZM1.79163 5.84699C1.79829 7.33533 2.44163 8.84282 3.60496 9.94699L4.52413 10.812C4.90746 11.1728 5.12496 11.6762 5.12496 12.2028C5.12496 12.3903 5.27663 12.542 5.46413 12.542H8.53579C8.62575 12.542 8.71201 12.5063 8.77562 12.4427C8.83923 12.379 8.87496 12.2928 8.87496 12.2028C8.87496 11.6762 9.09246 11.1728 9.47579 10.8112L10.3941 9.94699C11.5575 8.84282 12.2016 7.33533 12.2083 5.84699C12.2075 3.41699 9.94579 1.29199 6.99996 1.29199C4.05413 1.29199 1.79246 3.41699 1.79163 5.84699Z" fill="white"/>
</svg>
