<svg width="24" height="24" viewBox="0 0 24 24" fill="none" xmlns="http://www.w3.org/2000/svg">
<path d="M17.25 10.5V12.75C17.25 14.1424 16.6969 15.4777 15.7123 16.4623C14.7277 17.4469 13.3924 18 12 18C10.6076 18 9.27226 17.4469 8.28769 16.4623C7.30312 15.4777 6.75 14.1424 6.75 12.75V10.5H5.25V12.75C5.25079 14.4098 5.86309 16.0111 6.96991 17.248C8.07674 18.4849 9.60048 19.2706 11.25 19.455V21H8.25V22.5H15.75V21H12.75V19.455C14.3995 19.2706 15.9233 18.4849 17.0301 17.248C18.1369 16.0111 18.7492 14.4098 18.75 12.75V10.5H17.25Z" fill="#303030"/>
<path d="M12 16.5C12.9946 16.5 13.9484 16.1049 14.6517 15.4017C15.3549 14.6984 15.75 13.7446 15.75 12.75V5.25C15.75 4.25544 15.3549 3.30161 14.6517 2.59835C13.9484 1.89509 12.9946 1.5 12 1.5C11.0054 1.5 10.0516 1.89509 9.34835 2.59835C8.64509 3.30161 8.25 4.25544 8.25 5.25V12.75C8.25 13.7446 8.64509 14.6984 9.34835 15.4017C10.0516 16.1049 11.0054 16.5 12 16.5ZM9.75 5.25C9.75 4.65326 9.98705 4.08097 10.409 3.65901C10.831 3.23705 11.4033 3 12 3C12.5967 3 13.169 3.23705 13.591 3.65901C14.0129 4.08097 14.25 4.65326 14.25 5.25V12.75C14.25 13.3467 14.0129 13.919 13.591 14.341C13.169 14.7629 12.5967 15 12 15C11.4033 15 10.831 14.7629 10.409 14.341C9.98705 13.919 9.75 13.3467 9.75 12.75V5.25Z" fill="#303030"/>
</svg>
