<svg width="24" height="24" viewBox="0 0 24 24" fill="none" xmlns="http://www.w3.org/2000/svg">
<path d="M13.4418 2.41523C13.6416 1.90874 14.3584 1.90874 14.5582 2.41523L16.45 7.212C16.511 7.36663 16.6334 7.48904 16.788 7.55002L21.5848 9.44184C22.0913 9.6416 22.0913 10.3584 21.5848 10.5582L16.788 12.45C16.6334 12.511 16.511 12.6334 16.45 12.788L14.5582 17.5848C14.3584 18.0913 13.6416 18.0913 13.4418 17.5848L11.55 12.788C11.489 12.6334 11.3666 12.511 11.212 12.45L6.41523 10.5582C5.90874 10.3584 5.90874 9.6416 6.41523 9.44184L11.212 7.55002C11.3666 7.48904 11.489 7.36663 11.55 7.212L13.4418 2.41523Z" fill="#9eadfa"/>
<path d="M6.12906 13.9437C6.26223 13.606 6.7401 13.606 6.87327 13.9437L7.71022 16.0658C7.75087 16.1689 7.83248 16.2505 7.93557 16.2911L10.0577 17.1281C10.3953 17.2613 10.3953 17.7391 10.0577 17.8723L7.93557 18.7092C7.83248 18.7499 7.75087 18.8315 7.71022 18.9346L6.87327 21.0567C6.7401 21.3944 6.26223 21.3944 6.12906 21.0567L5.29211 18.9346C5.25145 18.8315 5.16985 18.7499 5.06676 18.7092L2.94465 17.8723C2.60699 17.7391 2.60699 17.2613 2.94465 17.1281L5.06676 16.2911C5.16985 16.2505 5.25145 16.1689 5.29211 16.0658L6.12906 13.9437Z" fill="#9eadfa"/>
</svg>
